<mxfile host="app.diagrams.net" modified="2023-11-06T02:32:25.587Z" agent="Mozilla/5.0 (Windows NT 10.0; Win64; x64) AppleWebKit/537.36 (KHTML, like Gecko) Chrome/119.0.0.0 Safari/537.36" etag="CFBeilF76zuxKTLAhf69" version="22.0.8" type="device">
  <diagram name="Trang-1" id="HJkQlbCHcmn69GQdZZli">
    <mxGraphModel dx="1050" dy="534" grid="1" gridSize="10" guides="1" tooltips="1" connect="1" arrows="1" fold="1" page="1" pageScale="1" pageWidth="827" pageHeight="1169" math="0" shadow="0">
      <root>
        <mxCell id="0" />
        <mxCell id="1" parent="0" />
        <mxCell id="OHfx4O6eR9XWgPg5AQLl-3" value="" style="edgeStyle=orthogonalEdgeStyle;rounded=0;orthogonalLoop=1;jettySize=auto;html=1;" edge="1" parent="1" source="OHfx4O6eR9XWgPg5AQLl-1" target="OHfx4O6eR9XWgPg5AQLl-2">
          <mxGeometry relative="1" as="geometry" />
        </mxCell>
        <mxCell id="OHfx4O6eR9XWgPg5AQLl-1" value="a,b,c" style="rounded=0;whiteSpace=wrap;html=1;" vertex="1" parent="1">
          <mxGeometry x="354" y="410" width="120" height="60" as="geometry" />
        </mxCell>
        <mxCell id="OHfx4O6eR9XWgPg5AQLl-10" value="" style="edgeStyle=orthogonalEdgeStyle;rounded=0;orthogonalLoop=1;jettySize=auto;html=1;" edge="1" parent="1" source="OHfx4O6eR9XWgPg5AQLl-2" target="OHfx4O6eR9XWgPg5AQLl-8">
          <mxGeometry relative="1" as="geometry" />
        </mxCell>
        <mxCell id="OHfx4O6eR9XWgPg5AQLl-2" value="a=min" style="rounded=0;whiteSpace=wrap;html=1;" vertex="1" parent="1">
          <mxGeometry x="354" y="560" width="120" height="70" as="geometry" />
        </mxCell>
        <mxCell id="OHfx4O6eR9XWgPg5AQLl-5" value="" style="edgeStyle=orthogonalEdgeStyle;rounded=0;orthogonalLoop=1;jettySize=auto;html=1;" edge="1" parent="1" source="OHfx4O6eR9XWgPg5AQLl-4" target="OHfx4O6eR9XWgPg5AQLl-1">
          <mxGeometry relative="1" as="geometry" />
        </mxCell>
        <mxCell id="OHfx4O6eR9XWgPg5AQLl-4" value="start" style="ellipse;whiteSpace=wrap;html=1;" vertex="1" parent="1">
          <mxGeometry x="354" y="260" width="120" height="80" as="geometry" />
        </mxCell>
        <mxCell id="OHfx4O6eR9XWgPg5AQLl-12" value="" style="edgeStyle=orthogonalEdgeStyle;rounded=0;orthogonalLoop=1;jettySize=auto;html=1;" edge="1" parent="1" source="OHfx4O6eR9XWgPg5AQLl-8" target="OHfx4O6eR9XWgPg5AQLl-11">
          <mxGeometry relative="1" as="geometry" />
        </mxCell>
        <mxCell id="OHfx4O6eR9XWgPg5AQLl-8" value="min&amp;gt;b" style="rhombus;whiteSpace=wrap;html=1;" vertex="1" parent="1">
          <mxGeometry x="374" y="680" width="80" height="80" as="geometry" />
        </mxCell>
        <mxCell id="OHfx4O6eR9XWgPg5AQLl-14" value="" style="edgeStyle=orthogonalEdgeStyle;rounded=0;orthogonalLoop=1;jettySize=auto;html=1;" edge="1" parent="1" source="OHfx4O6eR9XWgPg5AQLl-11" target="OHfx4O6eR9XWgPg5AQLl-13">
          <mxGeometry relative="1" as="geometry" />
        </mxCell>
        <mxCell id="OHfx4O6eR9XWgPg5AQLl-11" value="min=b" style="rounded=0;whiteSpace=wrap;html=1;" vertex="1" parent="1">
          <mxGeometry x="354" y="810" width="120" height="60" as="geometry" />
        </mxCell>
        <mxCell id="OHfx4O6eR9XWgPg5AQLl-16" value="" style="edgeStyle=orthogonalEdgeStyle;rounded=0;orthogonalLoop=1;jettySize=auto;html=1;" edge="1" parent="1" source="OHfx4O6eR9XWgPg5AQLl-13" target="OHfx4O6eR9XWgPg5AQLl-15">
          <mxGeometry relative="1" as="geometry" />
        </mxCell>
        <mxCell id="OHfx4O6eR9XWgPg5AQLl-13" value="min&amp;gt;c" style="rhombus;whiteSpace=wrap;html=1;" vertex="1" parent="1">
          <mxGeometry x="374" y="910" width="80" height="80" as="geometry" />
        </mxCell>
        <mxCell id="OHfx4O6eR9XWgPg5AQLl-18" value="" style="edgeStyle=orthogonalEdgeStyle;rounded=0;orthogonalLoop=1;jettySize=auto;html=1;" edge="1" parent="1" source="OHfx4O6eR9XWgPg5AQLl-15" target="OHfx4O6eR9XWgPg5AQLl-17">
          <mxGeometry relative="1" as="geometry" />
        </mxCell>
        <mxCell id="OHfx4O6eR9XWgPg5AQLl-15" value="min=c" style="rounded=0;whiteSpace=wrap;html=1;" vertex="1" parent="1">
          <mxGeometry x="354" y="1020" width="120" height="60" as="geometry" />
        </mxCell>
        <mxCell id="OHfx4O6eR9XWgPg5AQLl-20" value="" style="edgeStyle=orthogonalEdgeStyle;rounded=0;orthogonalLoop=1;jettySize=auto;html=1;" edge="1" parent="1">
          <mxGeometry relative="1" as="geometry">
            <mxPoint x="640" y="1080" as="sourcePoint" />
            <mxPoint x="550" y="1190" as="targetPoint" />
            <Array as="points">
              <mxPoint x="640" y="1081" />
              <mxPoint x="551" y="1081" />
            </Array>
          </mxGeometry>
        </mxCell>
        <mxCell id="OHfx4O6eR9XWgPg5AQLl-17" value="min" style="shape=parallelogram;perimeter=parallelogramPerimeter;whiteSpace=wrap;html=1;fixedSize=1;" vertex="1" parent="1">
          <mxGeometry x="560" y="1020" width="120" height="60" as="geometry" />
        </mxCell>
        <mxCell id="OHfx4O6eR9XWgPg5AQLl-19" value="end" style="ellipse;whiteSpace=wrap;html=1;" vertex="1" parent="1">
          <mxGeometry x="490" y="1180" width="120" height="80" as="geometry" />
        </mxCell>
      </root>
    </mxGraphModel>
  </diagram>
</mxfile>
